<mxfile>
    <diagram id="Vkf1kccMHPyQg5MPIpvl" name="Page-1">
        <mxGraphModel dx="820" dy="1669" grid="1" gridSize="10" guides="1" tooltips="1" connect="1" arrows="1" fold="1" page="1" pageScale="1" pageWidth="827" pageHeight="1169" math="0" shadow="0">
            <root>
                <mxCell id="0"/>
                <mxCell id="1" parent="0"/>
                <mxCell id="16" value="" style="strokeWidth=2;html=1;shape=mxgraph.flowchart.annotation_1;align=left;pointerEvents=1;rotation=90;" parent="1" vertex="1">
                    <mxGeometry x="442.5" y="-1073.12" width="48.75" height="245" as="geometry"/>
                </mxCell>
                <mxCell id="19" value="&lt;p style=&quot;margin: 4px 0px 0px ; text-align: center&quot;&gt;&lt;font&gt;&lt;span style=&quot;font-size: 15px&quot;&gt;&amp;nbsp;&lt;/span&gt;&lt;/font&gt;&lt;span style=&quot;font-size: 15px&quot;&gt;ToyotaFactory&lt;/span&gt;&lt;/p&gt;&lt;hr size=&quot;1&quot; style=&quot;font-size: 15px&quot;&gt;&lt;p style=&quot;margin: 0px 0px 0px 4px ; font-size: 15px&quot;&gt;&lt;font style=&quot;font-size: 15px&quot;&gt;&lt;br&gt;&lt;/font&gt;&lt;/p&gt;&lt;hr size=&quot;1&quot; style=&quot;font-size: 15px&quot;&gt;&lt;p style=&quot;margin: 0px 0px 0px 4px ; font-size: 15px&quot;&gt;&lt;/p&gt;&lt;span style=&quot;text-align: justify&quot;&gt;&lt;font&gt;&lt;span style=&quot;font-size: 15px&quot;&gt;&amp;nbsp;+createPremiumCar&lt;/span&gt;&lt;span style=&quot;font-size: 15px&quot;&gt;()&lt;/span&gt;&lt;br&gt;&lt;/font&gt;&lt;span style=&quot;font-size: 15px&quot;&gt;+createSportCar()&lt;/span&gt;&lt;br&gt;&lt;/span&gt;" style="verticalAlign=top;align=left;overflow=fill;fontSize=12;fontFamily=Helvetica;html=1;" parent="1" vertex="1">
                    <mxGeometry x="260" y="-927.5" width="170" height="137.5" as="geometry"/>
                </mxCell>
                <mxCell id="30" value="Extends" style="endArrow=block;endSize=16;endFill=0;html=1;entryX=0.421;entryY=0.996;entryDx=0;entryDy=0;entryPerimeter=0;" parent="1" target="35" edge="1">
                    <mxGeometry x="-0.2007" y="-32" width="160" relative="1" as="geometry">
                        <mxPoint x="488" y="-980" as="sourcePoint"/>
                        <mxPoint x="490" y="-1022" as="targetPoint"/>
                        <mxPoint as="offset"/>
                    </mxGeometry>
                </mxCell>
                <mxCell id="34" value="&lt;p style=&quot;margin: 4px 0px 0px ; text-align: center&quot;&gt;&lt;font&gt;&lt;span style=&quot;font-size: 15px&quot;&gt;&amp;nbsp;&lt;/span&gt;&lt;/font&gt;&lt;span style=&quot;font-size: 15px&quot;&gt;LexusFactory&lt;/span&gt;&lt;/p&gt;&lt;hr size=&quot;1&quot; style=&quot;font-size: 15px&quot;&gt;&lt;p style=&quot;margin: 0px 0px 0px 4px ; font-size: 15px&quot;&gt;&lt;font style=&quot;font-size: 15px&quot;&gt;&lt;br&gt;&lt;/font&gt;&lt;/p&gt;&lt;hr size=&quot;1&quot; style=&quot;font-size: 15px&quot;&gt;&lt;p style=&quot;margin: 0px 0px 0px 4px ; font-size: 15px&quot;&gt;&lt;/p&gt;&lt;span style=&quot;text-align: justify&quot;&gt;&lt;font&gt;&lt;span style=&quot;font-size: 15px&quot;&gt;&amp;nbsp;+createPremiumCar&lt;/span&gt;&lt;span style=&quot;font-size: 15px&quot;&gt;()&lt;/span&gt;&lt;br&gt;&lt;/font&gt;&lt;span style=&quot;font-size: 15px&quot;&gt;+createSportCar()&lt;/span&gt;&lt;br&gt;&lt;/span&gt;" style="verticalAlign=top;align=left;overflow=fill;fontSize=12;fontFamily=Helvetica;html=1;" parent="1" vertex="1">
                    <mxGeometry x="491.25" y="-927.5" width="170" height="137.5" as="geometry"/>
                </mxCell>
                <mxCell id="35" value="&lt;p style=&quot;margin: 4px 0px 0px ; text-align: center&quot;&gt;&lt;font&gt;&lt;span style=&quot;font-size: 15px&quot;&gt;&amp;nbsp;&lt;/span&gt;&lt;/font&gt;&lt;span style=&quot;font-size: 15px&quot;&gt;AbstractCarFactory&lt;/span&gt;&lt;/p&gt;&lt;hr size=&quot;1&quot; style=&quot;font-size: 15px&quot;&gt;&lt;p style=&quot;margin: 0px 0px 0px 4px ; font-size: 15px&quot;&gt;&lt;font style=&quot;font-size: 15px&quot;&gt;&lt;br&gt;&lt;/font&gt;&lt;/p&gt;&lt;hr size=&quot;1&quot; style=&quot;font-size: 15px&quot;&gt;&lt;p style=&quot;margin: 0px 0px 0px 4px ; font-size: 15px&quot;&gt;&lt;/p&gt;&lt;span style=&quot;text-align: justify&quot;&gt;&lt;font&gt;&lt;span style=&quot;font-size: 15px&quot;&gt;&amp;nbsp;+createPremiumCar&lt;/span&gt;&lt;span style=&quot;font-size: 15px&quot;&gt;()&lt;/span&gt;&lt;br&gt;&lt;/font&gt;&lt;span style=&quot;font-size: 15px&quot;&gt;+createSportCar()&lt;/span&gt;&lt;br&gt;&lt;/span&gt;" style="verticalAlign=top;align=left;overflow=fill;fontSize=12;fontFamily=Helvetica;html=1;" parent="1" vertex="1">
                    <mxGeometry x="407.5" y="-1160" width="170" height="137.5" as="geometry"/>
                </mxCell>
                <mxCell id="37" value="&lt;p style=&quot;margin: 4px 0px 0px ; text-align: center&quot;&gt;&lt;font&gt;&lt;span style=&quot;font-size: 15px&quot;&gt;&amp;nbsp;&lt;/span&gt;&lt;/font&gt;&lt;span style=&quot;font-size: 15px&quot;&gt;AbstractPremiumCar&lt;/span&gt;&lt;/p&gt;&lt;hr size=&quot;1&quot; style=&quot;font-size: 15px&quot;&gt;&lt;p style=&quot;margin: 0px 0px 0px 4px ; font-size: 15px&quot;&gt;&lt;font style=&quot;font-size: 15px&quot;&gt;&lt;br&gt;&lt;/font&gt;&lt;/p&gt;&lt;hr size=&quot;1&quot; style=&quot;font-size: 15px&quot;&gt;&lt;p style=&quot;margin: 0px 0px 0px 4px ; font-size: 15px&quot;&gt;&lt;/p&gt;&lt;span style=&quot;text-align: justify&quot;&gt;&lt;font&gt;&lt;span style=&quot;font-size: 15px&quot;&gt;&amp;nbsp;&lt;/span&gt;&lt;/font&gt;&lt;br&gt;&lt;/span&gt;" style="verticalAlign=top;align=left;overflow=fill;fontSize=12;fontFamily=Helvetica;html=1;" parent="1" vertex="1">
                    <mxGeometry x="80" y="-754" width="170" height="90" as="geometry"/>
                </mxCell>
                <mxCell id="38" value="&lt;p style=&quot;margin: 4px 0px 0px ; text-align: center&quot;&gt;&lt;font&gt;&lt;span style=&quot;font-size: 15px&quot;&gt;&amp;nbsp;&lt;/span&gt;&lt;/font&gt;&lt;span style=&quot;font-size: 15px&quot;&gt;AbstractSportCar&lt;/span&gt;&lt;/p&gt;&lt;hr size=&quot;1&quot; style=&quot;font-size: 15px&quot;&gt;&lt;p style=&quot;margin: 0px 0px 0px 4px ; font-size: 15px&quot;&gt;&lt;font style=&quot;font-size: 15px&quot;&gt;&lt;br&gt;&lt;/font&gt;&lt;/p&gt;&lt;hr size=&quot;1&quot; style=&quot;font-size: 15px&quot;&gt;&lt;p style=&quot;margin: 0px 0px 0px 4px ; font-size: 15px&quot;&gt;&lt;/p&gt;&lt;span style=&quot;text-align: justify&quot;&gt;&lt;font&gt;&lt;span style=&quot;font-size: 15px&quot;&gt;&amp;nbsp;&lt;/span&gt;&lt;/font&gt;&lt;br&gt;&lt;/span&gt;" style="verticalAlign=top;align=left;overflow=fill;fontSize=12;fontFamily=Helvetica;html=1;" parent="1" vertex="1">
                    <mxGeometry x="720" y="-760" width="170" height="90" as="geometry"/>
                </mxCell>
                <mxCell id="39" value="&lt;font style=&quot;font-size: 14px&quot;&gt;ToyotaPremiumCar&lt;/font&gt;" style="html=1;" parent="1" vertex="1">
                    <mxGeometry x="10" y="-589" width="150" height="50" as="geometry"/>
                </mxCell>
                <mxCell id="40" value="&lt;font style=&quot;font-size: 14px&quot;&gt;LexusPremiumCar&lt;/font&gt;" style="html=1;" parent="1" vertex="1">
                    <mxGeometry x="200" y="-590" width="150" height="50" as="geometry"/>
                </mxCell>
                <mxCell id="41" value="&lt;font style=&quot;font-size: 14px&quot;&gt;ToyotaSportCar&lt;/font&gt;" style="html=1;" parent="1" vertex="1">
                    <mxGeometry x="640" y="-609" width="150" height="50" as="geometry"/>
                </mxCell>
                <mxCell id="42" value="&lt;font style=&quot;font-size: 14px&quot;&gt;LexusSportCar&lt;/font&gt;" style="html=1;" parent="1" vertex="1">
                    <mxGeometry x="827" y="-609" width="150" height="50" as="geometry"/>
                </mxCell>
                <mxCell id="43" value="" style="strokeWidth=2;html=1;shape=mxgraph.flowchart.annotation_1;align=left;pointerEvents=1;rotation=90;" parent="1" vertex="1">
                    <mxGeometry x="161.25" y="-730" width="38.75" height="245" as="geometry"/>
                </mxCell>
                <mxCell id="44" value="Extends" style="endArrow=block;endSize=16;endFill=0;html=1;" parent="1" edge="1">
                    <mxGeometry x="-0.2007" y="-32" width="160" relative="1" as="geometry">
                        <mxPoint x="160" y="-630" as="sourcePoint"/>
                        <mxPoint x="159.99946897362406" y="-664" as="targetPoint"/>
                        <mxPoint as="offset"/>
                    </mxGeometry>
                </mxCell>
                <mxCell id="47" value="Extends" style="endArrow=block;endSize=16;endFill=0;html=1;entryX=0.5;entryY=1;entryDx=0;entryDy=0;exitX=0;exitY=0.5;exitDx=0;exitDy=0;exitPerimeter=0;" parent="1" source="49" target="38" edge="1">
                    <mxGeometry x="-0.208" y="55" width="160" relative="1" as="geometry">
                        <mxPoint x="510" y="-610" as="sourcePoint"/>
                        <mxPoint x="442.5" y="-609.98" as="targetPoint"/>
                        <mxPoint as="offset"/>
                    </mxGeometry>
                </mxCell>
                <mxCell id="49" value="" style="strokeWidth=2;html=1;shape=mxgraph.flowchart.annotation_1;align=left;pointerEvents=1;rotation=90;" parent="1" vertex="1">
                    <mxGeometry x="785.62" y="-740" width="38.75" height="245" as="geometry"/>
                </mxCell>
                <mxCell id="65" value="" style="endArrow=diamondThin;endFill=1;endSize=24;html=1;" parent="1" edge="1">
                    <mxGeometry width="160" relative="1" as="geometry">
                        <mxPoint x="40" y="-980" as="sourcePoint"/>
                        <mxPoint x="200" y="-980" as="targetPoint"/>
                    </mxGeometry>
                </mxCell>
                <mxCell id="67" value="Text" style="text;html=1;align=center;verticalAlign=middle;resizable=0;points=[];autosize=1;" parent="1" vertex="1">
                    <mxGeometry x="80" y="-1000" width="40" height="20" as="geometry"/>
                </mxCell>
                <mxCell id="68" value="Use" style="endArrow=open;endSize=12;dashed=1;html=1;exitX=0;exitY=0.425;exitDx=0;exitDy=0;exitPerimeter=0;entryX=0.5;entryY=0;entryDx=0;entryDy=0;" edge="1" parent="1" source="19" target="37">
                    <mxGeometry width="160" relative="1" as="geometry">
                        <mxPoint x="40" y="-870" as="sourcePoint"/>
                        <mxPoint x="200" y="-870" as="targetPoint"/>
                    </mxGeometry>
                </mxCell>
                <mxCell id="69" value="Use" style="endArrow=open;endSize=12;dashed=1;html=1;exitX=0;exitY=0.75;exitDx=0;exitDy=0;entryX=1;entryY=0;entryDx=0;entryDy=0;" edge="1" parent="1" source="34" target="37">
                    <mxGeometry width="160" relative="1" as="geometry">
                        <mxPoint x="442.5" y="-754.0025" as="sourcePoint"/>
                        <mxPoint x="347.5" y="-638.94" as="targetPoint"/>
                    </mxGeometry>
                </mxCell>
                <mxCell id="71" value="Use" style="endArrow=open;endSize=12;dashed=1;html=1;exitX=1;exitY=0.5;exitDx=0;exitDy=0;entryX=0.5;entryY=0;entryDx=0;entryDy=0;" edge="1" parent="1" source="34" target="38">
                    <mxGeometry width="160" relative="1" as="geometry">
                        <mxPoint x="795" y="-880.0025" as="sourcePoint"/>
                        <mxPoint x="700" y="-764.94" as="targetPoint"/>
                    </mxGeometry>
                </mxCell>
                <mxCell id="72" value="Use" style="endArrow=open;endSize=12;dashed=1;html=1;exitX=1;exitY=0.5;exitDx=0;exitDy=0;entryX=-0.006;entryY=0.333;entryDx=0;entryDy=0;entryPerimeter=0;" edge="1" parent="1" target="38">
                    <mxGeometry width="160" relative="1" as="geometry">
                        <mxPoint x="414" y="-790" as="sourcePoint"/>
                        <mxPoint x="557.75" y="-691.25" as="targetPoint"/>
                    </mxGeometry>
                </mxCell>
            </root>
        </mxGraphModel>
    </diagram>
</mxfile>